<?xml version="1.0" encoding="UTF-8"?>
<svg width="16px" height="20px" viewBox="0 0 16 20" version="1.1" xmlns="http://www.w3.org/2000/svg" xmlns:xlink="http://www.w3.org/1999/xlink">
    <!-- Generator: Sketch 46.2 (44496) - http://www.bohemiancoding.com/sketch -->
    <title>Fill 1</title>
    <desc>Created with Sketch.</desc>
    <defs></defs>
    <g id="Welcome---Lifestyle" stroke="none" stroke-width="1" fill="none" fill-rule="evenodd">
        <g id="1600-Welcome-lifestyle-no-text" transform="translate(-792.000000, -733.000000)" fill="#FFFFFF">
            <g id="Masthead" transform="translate(0.000000, 83.000000)">
                <g id="Text-Container" transform="translate(420.000000, 143.000000)">
                    <g id="arrow-btn" transform="translate(326.000000, 459.000000)">
                        <g id="scroll-btn" transform="translate(24.000000, 28.000000)">
                            <path d="M39.8371394,29.5886427 C39.9191066,29.692086 39.9756604,29.8109206 39.9871143,29.9505154 C39.9874723,29.9648328 39.9978524,29.9766447 39.9974945,29.9906042 C39.9974945,29.9941835 40,29.997047 40,29.9999105 C40,30.0045637 39.9982103,30.0074272 39.9978524,30.0110065 C39.9982103,30.0199549 39.9935572,30.0271136 39.9928413,30.0353461 C39.9842508,30.2053655 39.9173169,30.3567721 39.8106522,30.4752488 C39.8017038,30.484913 39.8056411,30.5003042 39.7959768,30.5099685 C39.7863125,30.5199907 39.7709213,30.5156955 39.7608991,30.5242859 C39.7523087,30.5325184 39.7365595,30.5310867 39.7265373,30.5389613 L31.9042165,37.6479168 C31.6318276,37.9206636 31.1901353,37.9206636 30.9177464,37.6479168 C30.6453576,37.37517 30.6453576,36.9345515 30.9177464,36.6628785 L37.4629537,30.7136338 L20.7137232,30.7136338 C20.3192784,30.7136338 20,30.3932816 20,29.9995526 C20,29.6065395 20.3196363,29.2865452 20.7137232,29.2865452 L37.4629537,29.2865452 L30.9177464,23.3373005 C30.6453576,23.0649116 30.6453576,22.6242931 30.9177464,22.3515463 C31.1901353,22.0795154 31.6318276,22.0795154 31.9042165,22.3515463 L39.6871644,29.4257821 C39.6986184,29.4340146 39.7043453,29.4479741 39.7154413,29.4565645 C39.7397809,29.4755351 39.7734269,29.4680185 39.7956189,29.4898525 C39.8235378,29.5181294 39.8149474,29.5578603 39.8371394,29.5886427" id="Fill-1" transform="translate(30.000000, 30.000000) rotate(-270.000000) translate(-30.000000, -30.000000) "></path>
                        </g>
                    </g>
                </g>
            </g>
        </g>
    </g>
</svg>